<svg xmlns="http://www.w3.org/2000/svg" viewBox="0 0 563.74 581.95"><defs><style>.cls-1{fill:#191817}</style></defs><g id="Layer_1"><circle cx="280.85" cy="284.45" r="267.57" style="fill:#edb21f"/><circle cx="292.11" cy="303.91" r="258.36" style="fill:#ffc221"/><path class="cls-1" d="M153.61 301.45c-7.74-6.65-17.13-9.98-28.17-9.98s-20.64 3.76-28.78 11.27c-8.14 7.52-12.21 17.65-12.21 30.39s3.99 22.9 11.99 30.47c7.99 7.57 17.68 11.35 29.08 11.35 14.05 0 25.44-4.52 34.2-13.56l-9.77-10.66c-5.29 6.4-13.03 9.6-23.21 9.6-6.41 0-12.11-1.8-17.1-5.41-4.99-3.6-7.69-8.35-8.09-14.24h63.67v-11.73c0-11.68-3.87-20.84-11.6-27.5Zm-52.06 25.82c0-6.5 2.49-11.65 7.48-15.46 4.99-3.81 10.61-5.71 16.87-5.71s11.53 1.83 15.8 5.48 6.41 8.89 6.41 15.69h-46.57Zm143.21-22.09c-6.62-9.14-15.34-13.71-26.18-13.71s-20.18 3.76-28.02 11.27c-7.84 7.52-11.76 17.57-11.76 30.16s3.82 22.75 11.45 30.47c7.63 7.72 16.59 11.58 26.87 11.58 12.11 0 21.32-4.47 27.63-13.41v12.19h17.1V260.7h-17.1v44.48Zm-6.72 47.3c-4.68 4.93-10.38 7.39-17.1 7.39s-12.57-2.44-17.56-7.31c-4.99-4.87-7.48-11.2-7.48-18.97s2.44-14.24 7.33-19.42c4.89-5.18 10.74-7.77 17.56-7.77s12.57 2.59 17.25 7.77 7.02 11.63 7.02 19.35-2.34 14.04-7.02 18.97Zm178.68-51.03c-7.74-6.65-17.13-9.98-28.17-9.98s-20.64 3.76-28.78 11.27c-8.14 7.52-12.21 17.65-12.21 30.39 0 .97.03 1.91.08 2.85-10.03 23.72-34.56 69.98-49.24 74.99-9.54 1.48-7-15.02-7-15.02 4.03-31.74 15.27-56.7 23.33-86.75 17.18-23.49 111.76-123.56 71.47-133.51-55.35-15.45-114.73 151.49-114.73 214.33-.21 11.85 1.7 24.12 8.69 29.2 23.59 18.22 51.28-30.49 69.29-72.18 1.91 6.46 5.27 11.99 10.1 16.56 7.99 7.57 17.68 11.35 29.09 11.35 14.05 0 25.44-4.52 34.2-13.56l-9.77-10.66c-5.29 6.4-13.03 9.6-23.21 9.6-6.41 0-12.11-1.8-17.1-5.41-4.99-3.6-7.69-8.35-8.09-14.24h63.67v-11.73c0-11.68-3.87-20.84-11.6-27.5Zm-82.06-47.48c28.42-62.42 43.26-75.11 49.2-64.11 1.27 8.04-12.3 30.68-16.12 37.03-7 11-16.54 25.39-46.87 63.69 1.06-3.6 6.57-20.31 13.78-36.6Zm30 73.3c0-6.5 2.49-11.65 7.48-15.46 4.99-3.81 10.61-5.71 16.87-5.71s11.53 1.83 15.8 5.48c4.27 3.66 6.41 8.89 6.41 15.69h-46.57Zm125.81-35.8c-5.29.1-10.31 1.78-15.04 5.03-4.73 3.25-8.47 7.41-11.22 12.49v-16.3h-17.1v81.04h17.1V339c0-9.24 2.14-16.6 6.41-22.09 4.27-5.48 10.63-8.23 19.08-8.23h.92l-.15-17.21Z" id="edler"/><path class="cls-1" d="M388.89 395.78c-1.89 0-3.65.47-5.29 1.4-1.64.94-2.86 2.22-3.67 3.86v-15.33h-5.67v37.12h5.67V408.4c0-2.47.73-4.35 2.18-5.64 1.45-1.29 3.16-1.93 5.11-1.93 4.12 0 6.18 2.45 6.18 7.36v14.63h5.67v-16.33c0-3.47-.94-6.13-2.81-7.97-1.87-1.84-4.33-2.76-7.37-2.76Zm36.91 14.83c0 2.47-.73 4.35-2.18 5.64-1.45 1.29-3.16 1.93-5.11 1.93-4.12 0-6.18-2.45-6.18-7.36v-14.63h-5.67v16.33c0 3.47.94 6.13 2.81 7.97 1.87 1.84 4.33 2.76 7.37 2.76 1.86 0 3.59-.47 5.19-1.4a9.99 9.99 0 0 0 3.77-3.86v4.86h5.67V396.2h-5.67v14.43Zm37.56-11.12c-2.57-2.47-5.65-3.71-9.26-3.71s-6.53 1.69-8.76 5.06v-15.18h-5.67v37.17h5.67v-4.01c2.7 2.94 5.75 4.41 9.14 4.41s6.36-1.29 8.91-3.86 3.82-5.91 3.82-10.02-1.28-7.4-3.85-9.87Zm-4.3 16.33c-1.65 1.6-3.59 2.4-5.82 2.4s-4.12-.81-5.67-2.43c-1.55-1.62-2.33-3.7-2.33-6.24s.78-4.65 2.33-6.34c1.55-1.69 3.46-2.53 5.72-2.53s4.2.84 5.82 2.53 2.43 3.81 2.43 6.36-.83 4.63-2.48 6.24Z" id="hub"/></g></svg>